<svg width="61" height="69" viewBox="0 0 61 69" fill="none" xmlns="http://www.w3.org/2000/svg">
<path d="M52.7615 13.2606C52.6956 12.9309 52.4318 12.7329 52.168 12.7329C51.9041 12.7329 46.6939 12.3371 46.6939 12.3371C46.6939 12.3371 43.0666 8.70851 42.605 8.31266C42.2092 7.91682 41.4178 8.04877 41.0881 8.11475C41.0221 8.11475 40.2967 8.37864 39.0436 8.77449C37.7905 5.21191 35.68 1.97921 31.8548 1.97921H31.5251C30.4698 0.593762 29.1508 0 27.9636 0C19.1261 0 14.9051 11.0176 13.5861 16.6254C10.1566 17.6809 7.71637 18.4066 7.38662 18.5386C5.47401 19.1324 5.40805 19.1983 5.21021 20.9796C5.01234 22.365 0 61.1575 0 61.1575L39.0436 68.4146L60.2141 63.8624C60.2801 63.7964 52.8276 13.5905 52.7615 13.2606ZM36.9331 9.30227C35.9438 9.56616 34.8226 9.962 33.6354 10.3578V9.63214C33.6354 7.45501 33.3717 5.67373 32.8441 4.28829C34.8226 4.55218 36.0757 6.7293 36.9331 9.30227ZM30.3379 4.7501C30.8655 6.13554 31.1953 8.04877 31.1953 10.6877V11.0836C29.0189 11.7433 26.7105 12.469 24.4022 13.1948C25.7212 8.18073 28.2934 5.67373 30.3379 4.7501ZM27.7658 2.2431C28.1615 2.2431 28.5572 2.37505 28.8869 2.63894C26.051 3.95841 23.0172 7.32306 21.7641 14.0524C19.8516 14.6461 18.0709 15.1739 16.3561 15.7676C17.873 10.6217 21.4343 2.2431 27.7658 2.2431Z" fill="#95BF47"/>
</svg>
